<svg xmlns="http://www.w3.org/2000/svg" class="icon icon-tabler icon-tabler-robot" width="250px" height="250px" viewBox="0 0 24 24" stroke-width="1.00" stroke="rgba(1, 1, 1, 1)" fill="none" stroke-linecap="round" stroke-linejoin="round"><circle cx="50%" cy="50%" r="50%" stroke="none" stroke-width="0" fill="rgba(255, 255, 255, 1)"/><g transform="translate(2.40, 2.40) scale(0.8)"><path stroke="none" d="M0 0h24v24H0z" fill="none"/><path d="M7 7h10a2 2 0 0 1 2 2v1l1 1v3l-1 1v3a2 2 0 0 1 -2 2h-10a2 2 0 0 1 -2 -2v-3l-1 -1v-3l1 -1v-1a2 2 0 0 1 2 -2z"/><path d="M10 16h4"/><circle cx="8.5" cy="11.5" r=".5" fill="currentColor"/><circle cx="15.5" cy="11.5" r=".5" fill="currentColor"/><path d="M9 7l-1 -4"/><path d="M15 7l1 -4"/></g>
  
  
  
  
  
  
  
</svg>