<svg width="582" height="576" viewBox="0 0 582 576" fill="none" xmlns="http://www.w3.org/2000/svg">
<g clip-path="url(#clip0_8744_12145)">
<g opacity="0.34">
<path d="M704.191 49.472C810.945 49.472 897.489 136.054 897.489 242.856C897.489 349.659 810.945 436.241 704.191 436.241C597.437 436.241 510.893 349.659 510.893 242.856" stroke="#F07C16" stroke-width="0.75" stroke-miterlimit="10"/>
<path d="M164.254 46.7791C208.174 91.7716 207.318 163.862 162.345 207.802C117.373 251.742 45.3145 250.885 1.39429 205.893" stroke="#F07C16" stroke-width="0.26" stroke-miterlimit="10"/>
<path d="M38.6592 397.074C38.6592 302.438 115.342 225.721 209.936 225.721C304.529 225.721 381.212 302.438 381.212 397.074C381.212 491.71 304.529 568.428 209.936 568.428" stroke="#870058" stroke-width="0.5" stroke-miterlimit="10"/>
<path opacity="0.5" d="M398.658 542.431C300.174 506.789 249.232 398.004 284.857 299.501C320.483 200.973 429.219 150.007 527.678 185.649C626.162 221.29 677.105 330.075 641.479 428.579" stroke="#F71C4E" stroke-width="0.75" stroke-miterlimit="10"/>
<path d="M273.993 368.043C357.289 368.043 424.814 300.487 424.814 217.154C424.814 133.82 357.289 66.2649 273.993 66.2649C190.697 66.2649 123.172 133.82 123.172 217.154C123.172 300.487 190.697 368.043 273.993 368.043Z" stroke="#09A858" stroke-width="0.33" stroke-miterlimit="10"/>
<path d="M462.202 432.789C498.553 432.789 528.021 403.308 528.021 366.941C528.021 330.574 498.553 301.092 462.202 301.092C425.851 301.092 396.383 330.574 396.383 366.941C396.383 403.308 425.851 432.789 462.202 432.789Z" stroke="#0FCCC9" stroke-width="0.5" stroke-miterlimit="10"/>
<path d="M322.734 131.697C359.085 131.697 388.553 102.216 388.553 65.8486C388.553 29.4814 359.085 0 322.734 0C286.383 0 256.915 29.4814 256.915 65.8486C256.915 102.216 286.383 131.697 322.734 131.697Z" stroke="#3C41B1" stroke-width="0.5" stroke-miterlimit="10"/>
<path d="M512.116 250.2C516.846 250.2 520.68 246.364 520.68 241.632C520.68 236.901 516.846 233.065 512.116 233.065C507.387 233.065 503.552 236.901 503.552 241.632C503.552 246.364 507.387 250.2 512.116 250.2Z" fill="#F07C16"/>
<path d="M37.4356 404.418C40.814 404.418 43.5526 401.678 43.5526 398.298C43.5526 394.918 40.814 392.179 37.4356 392.179C34.0573 392.179 31.3186 394.918 31.3186 398.298C31.3186 401.678 34.0573 404.418 37.4356 404.418Z" fill="#3C41B1"/>
<path d="M211.159 575.771C214.537 575.771 217.276 573.031 217.276 569.652C217.276 566.272 214.537 563.532 211.159 563.532C207.781 563.532 205.042 566.272 205.042 569.652C205.042 573.031 207.781 575.771 211.159 575.771Z" fill="#3C41B1"/>
<path d="M485.201 433.793C488.58 433.793 491.319 431.053 491.319 427.673C491.319 424.293 488.58 421.553 485.201 421.553C481.823 421.553 479.084 424.293 479.084 427.673C479.084 431.053 481.823 433.793 485.201 433.793Z" fill="#F2F3F8"/>
<path d="M316.372 78.8469C319.75 78.8469 322.489 76.107 322.489 72.7271C322.489 69.3473 319.75 66.6074 316.372 66.6074C312.993 66.6074 310.255 69.3473 310.255 72.7271C310.255 76.107 312.993 78.8469 316.372 78.8469Z" fill="#09A858"/>
<path d="M362.861 345.668C366.239 345.668 368.978 342.929 368.978 339.549C368.978 336.169 366.239 333.429 362.861 333.429C359.483 333.429 356.744 336.169 356.744 339.549C356.744 342.929 359.483 345.668 362.861 345.668Z" fill="#09A858"/>
<path d="M397.117 546.397C400.495 546.397 403.234 543.657 403.234 540.277C403.234 536.897 400.495 534.157 397.117 534.157C393.738 534.157 391 536.897 391 540.277C391 543.657 393.738 546.397 397.117 546.397Z" fill="#F71C4E"/>
<path d="M165.403 53.2419C168.781 53.2419 171.52 50.502 171.52 47.1221C171.52 43.7423 168.781 41.0024 165.403 41.0024C162.025 41.0024 159.286 43.7423 159.286 47.1221C159.286 50.502 162.025 53.2419 165.403 53.2419Z" fill="#870058"/>
<path d="M365.308 20.0972C368.686 20.0972 371.425 17.3573 371.425 13.9774C371.425 10.5976 368.686 7.85767 365.308 7.85767C361.93 7.85767 359.191 10.5976 359.191 13.9774C359.191 17.3573 361.93 20.0972 365.308 20.0972Z" fill="#870058"/>
<path d="M6.11702 217.006C9.49536 217.006 12.234 214.267 12.234 210.887C12.234 207.507 9.49536 204.767 6.11702 204.767C2.73868 204.767 0 207.507 0 210.887C0 214.267 2.73868 217.006 6.11702 217.006Z" fill="#870058"/>
</g>
</g>
<defs>
<clipPath id="clip0_8744_12145">
<rect width="582" height="576" fill="white"/>
</clipPath>
</defs>
</svg>
